fd_6_states
version=1
nRows=39
nColumns=17
inDegrees=yes

# SIMM Motion File Header:
name fd_6_states
datacolumns 17
datarows 39
otherdata 1
range 0.230175 0.287885
endheader
time	/jointset/r_shoulder/r_shoulder_elev/value	/jointset/r_shoulder/r_shoulder_elev/speed	/jointset/r_elbow/r_elbow_flex/value	/jointset/r_elbow/r_elbow_flex/speed	/forceset/TRIlong/activation	/forceset/TRIlong/fiber_length	/forceset/TRIlat/activation	/forceset/TRIlat/fiber_length	/forceset/TRImed/activation	/forceset/TRImed/fiber_length	/forceset/BIClong/activation	/forceset/BIClong/fiber_length	/forceset/BICshort/activation	/forceset/BICshort/fiber_length	/forceset/BRA/activation	/forceset/BRA/fiber_length
      0.230175	     -0.003792	     -0.126395	    133.590355	     73.947751	      0.024243	      0.183893	      0.454552	      0.117261	      0.459082	      0.112325	      0.999681	      0.059581	      0.531995	      0.059570	      0.026447	      0.050911
      0.230303	     -0.003808	     -0.126102	    133.599802	     73.655386	      0.024236	      0.183896	      0.454726	      0.117265	      0.459287	      0.112329	      0.999683	      0.059573	      0.529884	      0.059566	      0.026436	      0.050908
      0.230943	     -0.003889	     -0.124861	    133.646477	     72.194471	      0.024200	      0.183911	      0.455570	      0.117282	      0.460282	      0.112346	      0.999693	      0.059536	      0.519532	      0.059546	      0.026381	      0.050889
      0.234143	     -0.004282	     -0.121051	    133.865802	     64.863462	      0.024023	      0.183983	      0.459157	      0.117361	      0.464514	      0.112424	      0.999738	      0.059357	      0.472433	      0.059467	      0.026111	      0.050802
      0.236613	     -0.004577	     -0.118418	    134.018982	     59.142392	      0.023892	      0.184033	      0.461328	      0.117418	      0.467078	      0.112479	      0.999769	      0.059229	      0.440662	      0.059424	      0.025911	      0.050741
      0.239084	     -0.004864	     -0.112669	    134.157983	     53.391592	      0.023766	      0.184079	      0.463088	      0.117470	      0.469159	      0.112531	      0.999796	      0.059110	      0.412217	      0.059392	      0.025718	      0.050685
      0.239775	     -0.004941	     -0.111134	    134.194314	     51.783879	      0.023731	      0.184091	      0.463517	      0.117484	      0.469667	      0.112544	      0.999803	      0.059079	      0.404789	      0.059385	      0.025665	      0.050670
      0.240046	     -0.004972	     -0.110417	    134.208306	     51.152039	      0.023717	      0.184096	      0.463791	      0.117489	      0.469968	      0.112550	      0.999805	      0.059066	      0.401924	      0.059382	      0.025644	      0.050664
      0.240222	     -0.004991	     -0.110000	    134.217265	     50.743624	      0.023709	      0.184098	      0.464594	      0.117493	      0.470778	      0.112553	      0.999807	      0.059058	      0.400079	      0.059380	      0.025631	      0.050661
      0.240398	     -0.005010	     -0.109664	    134.226152	     50.335395	      0.023700	      0.184101	      0.465439	      0.117496	      0.471628	      0.112556	      0.999809	      0.059051	      0.398248	      0.059378	      0.025618	      0.050657
      0.241277	     -0.005106	     -0.108982	    134.269512	     48.295286	      0.023657	      0.184116	      0.469471	      0.117512	      0.475684	      0.112572	      0.999817	      0.059012	      0.389288	      0.059371	      0.025552	      0.050639
      0.245568	     -0.005585	     -0.114708	    134.455293	     38.280860	      0.023453	      0.184178	      0.485248	      0.117576	      0.491582	      0.112635	      0.999852	      0.058840	      0.349827	      0.059345	      0.025240	      0.050563
      0.249859	     -0.006079	     -0.113677	    134.597907	     28.204526	      0.023260	      0.184227	      0.496188	      0.117625	      0.502636	      0.112683	      0.999881	      0.058695	      0.316312	      0.059339	      0.024947	      0.050502
      0.249998	     -0.006095	     -0.113332	    134.601805	     27.880286	      0.023254	      0.184228	      0.496481	      0.117626	      0.502932	      0.112685	      0.999882	      0.058690	      0.315312	      0.059339	      0.024937	      0.050500
      0.250106	     -0.006107	     -0.113028	    134.604798	     27.628871	      0.023249	      0.184229	      0.496795	      0.117627	      0.503260	      0.112686	      0.998798	      0.058687	      0.314538	      0.059339	      0.024930	      0.050499
      0.250213	     -0.006119	     -0.112658	    134.607765	     27.377601	      0.023245	      0.184230	      0.497123	      0.117628	      0.503605	      0.112687	      0.997505	      0.058684	      0.313768	      0.059339	      0.024923	      0.050497
      0.250753	     -0.006179	     -0.109898	    134.622190	     26.123053	      0.023221	      0.184235	      0.498722	      0.117633	      0.505282	      0.112692	      0.991162	      0.058668	      0.309960	      0.059339	      0.024887	      0.050491
      0.253449	     -0.006441	     -0.080966	    134.684189	     19.863997	      0.023107	      0.184257	      0.505721	      0.117656	      0.512633	      0.112715	      0.962253	      0.058610	      0.291951	      0.059344	      0.024714	      0.050462
      0.257992	     -0.006677	     -0.026355	    134.750368	      9.255480	      0.022924	      0.184282	      0.514517	      0.117685	      0.521888	      0.112743	      0.922395	      0.058564	      0.265045	      0.059363	      0.024435	      0.050429
      0.259242	     -0.006704	     -0.018612	    134.760102	      6.328776	      0.022876	      0.184286	      0.516421	      0.117691	      0.523895	      0.112748	      0.913042	      0.058560	      0.258309	      0.059371	      0.024361	      0.050422
      0.259765	     -0.006713	     -0.016684	    134.763096	      5.103172	      0.022856	      0.184288	      0.517164	      0.117693	      0.524679	      0.112750	      0.909300	      0.058559	      0.255562	      0.059375	      0.024331	      0.050420
      0.259996	     -0.006717	     -0.016102	    134.764213	      4.562941	      0.022847	      0.184288	      0.517482	      0.117694	      0.525014	      0.112751	      0.907682	      0.058559	      0.254364	      0.059377	      0.024317	      0.050419
      0.260181	     -0.006720	     -0.015737	    134.765014	      4.132658	      0.022840	      0.184289	      0.518350	      0.117695	      0.525873	      0.112752	      0.905790	      0.058559	      0.253415	      0.059378	      0.024307	      0.050418
      0.260365	     -0.006723	     -0.015437	    134.765735	      3.702569	      0.022833	      0.184289	      0.519327	      0.117696	      0.526836	      0.112753	      0.903796	      0.058559	      0.252472	      0.059380	      0.024296	      0.050418
      0.261286	     -0.006737	     -0.014824	    134.768155	      1.554213	      0.022798	      0.184291	      0.523991	      0.117698	      0.531439	      0.112755	      0.894120	      0.058559	      0.247835	      0.059388	      0.024243	      0.050415
      0.265890	     -0.006820	     -0.022509	    134.750655	     -9.136950	      0.022632	      0.184289	      0.542667	      0.117700	      0.549905	      0.112756	      0.852288	      0.058579	      0.226473	      0.059443	      0.023989	      0.050410
      0.267641	     -0.006866	     -0.029537	    134.731094	    -13.207006	      0.022571	      0.184285	      0.548138	      0.117694	      0.555327	      0.112750	      0.838823	      0.058594	      0.219069	      0.059470	      0.023897	      0.050412
      0.269890	     -0.006938	     -0.033984	    134.695493	    -18.452493	      0.022495	      0.184275	      0.554143	      0.117683	      0.561286	      0.112739	      0.823176	      0.058618	      0.210080	      0.059512	      0.023781	      0.050417
      0.270095	     -0.006945	     -0.034079	    134.691661	    -18.931403	      0.022488	      0.184274	      0.554629	      0.117681	      0.561768	      0.112737	      0.821674	      0.058620	      0.209288	      0.059516	      0.023771	      0.050418
      0.270300	     -0.006952	     -0.034108	    134.687730	    -19.410397	      0.022481	      0.184273	      0.555047	      0.117680	      0.562184	      0.112736	      0.819360	      0.058623	      0.208500	      0.059520	      0.023760	      0.050419
      0.270648	     -0.006964	     -0.034017	    134.680825	    -20.224715	      0.022470	      0.184271	      0.555743	      0.117678	      0.562876	      0.112734	      0.815472	      0.058628	      0.207172	      0.059528	      0.023743	      0.050420
      0.272391	     -0.007021	     -0.031381	    134.642040	    -24.299450	      0.022413	      0.184259	      0.558955	      0.117665	      0.566074	      0.112721	      0.797063	      0.058654	      0.200716	      0.059567	      0.023657	      0.050429
      0.276154	     -0.007119	     -0.020349	    134.534008	    -33.110230	      0.022295	      0.184227	      0.564592	      0.117631	      0.571694	      0.112687	      0.762450	      0.058732	      0.187752	      0.059670	      0.023477	      0.050457
      0.278854	     -0.007165	     -0.013613	    134.436085	    -39.420552	      0.022214	      0.184197	      0.567751	      0.117602	      0.574851	      0.112658	      0.741270	      0.058804	      0.179200	      0.059758	      0.023354	      0.050487
      0.279945	     -0.007179	     -0.013096	    134.391702	    -41.963386	      0.022182	      0.184184	      0.568857	      0.117589	      0.575956	      0.112645	      0.733455	      0.058836	      0.175908	      0.059797	      0.023305	      0.050502
      0.280736	     -0.007189	     -0.013114	    134.357762	    -43.804763	      0.022159	      0.184173	      0.570334	      0.117579	      0.577552	      0.112634	      0.727924	      0.058861	      0.173575	      0.059827	      0.023270	      0.050513
      0.282073	     -0.007207	     -0.013974	    134.297121	    -46.910949	      0.022121	      0.184155	      0.572870	      0.117561	      0.580311	      0.112616	      0.718994	      0.058906	      0.169736	      0.059879	      0.023212	      0.050533
      0.285577	     -0.007264	     -0.018702	    134.118520	    -55.048628	      0.022024	      0.184100	      0.578420	      0.117506	      0.586357	      0.112560	      0.698004	      0.059035	      0.160248	      0.060032	      0.023065	      0.050596
      0.287885	     -0.007310	     -0.020750	    133.985294	    -60.404412	      0.021963	      0.184058	      0.581357	      0.117464	      0.589561	      0.112519	      0.685852	      0.059131	      0.154417	      0.060144	      0.022972	      0.050644
